<?xml version="1.0" encoding="UTF-8" standalone="no"?>
<svg
   xmlns:dc="http://purl.org/dc/elements/1.1/"
   xmlns:cc="http://creativecommons.org/ns#"
   xmlns:rdf="http://www.w3.org/1999/02/22-rdf-syntax-ns#"
   xmlns:svg="http://www.w3.org/2000/svg"
   xmlns="http://www.w3.org/2000/svg"
   xmlns:sodipodi="http://sodipodi.sourceforge.net/DTD/sodipodi-0.dtd"
   xmlns:inkscape="http://www.inkscape.org/namespaces/inkscape"
   fill="#000000"
   viewBox="0 0 30 30"
   width="30px"
   height="30px"
   version="1.1"
   id="svg4"
   sodipodi:docname="google.svg"
   inkscape:version="1.0.2 (e86c870879, 2021-01-15, custom)">
  <metadata
     id="metadata10">
    <rdf:RDF>
      <cc:Work
         rdf:about="">
        <dc:format>image/svg+xml</dc:format>
        <dc:type
           rdf:resource="http://purl.org/dc/dcmitype/StillImage" />
      </cc:Work>
    </rdf:RDF>
  </metadata>
  <defs
     id="defs8" />
  <sodipodi:namedview
     pagecolor="#ffffff"
     bordercolor="#666666"
     borderopacity="1"
     objecttolerance="10"
     gridtolerance="10"
     guidetolerance="10"
     inkscape:pageopacity="0"
     inkscape:pageshadow="2"
     inkscape:window-width="1920"
     inkscape:window-height="991"
     id="namedview6"
     showgrid="false"
     inkscape:zoom="27.333333"
     inkscape:cx="15"
     inkscape:cy="15"
     inkscape:window-x="-9"
     inkscape:window-y="-9"
     inkscape:window-maximized="1"
     inkscape:current-layer="svg4" />
  <path
     d="M 15.003906 3 C 8.3749062 3 3 8.373 3 15 C 3 21.627 8.3749062 27 15.003906 27 C 25.013906 27 27.269078 17.707 26.330078 13 L 25 13 L 22.732422 13 L 15 13 L 15 17 L 22.738281 17 C 21.848702 20.448251 18.725955 23 15 23 C 10.582 23 7 19.418 7 15 C 7 10.582 10.582 7 15 7 C 17.009 7 18.839141 7.74575 20.244141 8.96875 L 23.085938 6.1289062 C 20.951937 4.1849063 18.116906 3 15.003906 3 z"
     id="path2"
     style="fill:#f9f9f9;stroke:#64748b;stroke-opacity:1;opacity:1;stroke-width:2.2;stroke-miterlimit:4;stroke-dasharray:none" />
</svg>
