<?xml version="1.0" encoding="UTF-8" standalone="no"?>
<svg
   xmlns:dc="http://purl.org/dc/elements/1.1/"
   xmlns:cc="http://creativecommons.org/ns#"
   xmlns:rdf="http://www.w3.org/1999/02/22-rdf-syntax-ns#"
   xmlns:svg="http://www.w3.org/2000/svg"
   xmlns="http://www.w3.org/2000/svg"
   xmlns:sodipodi="http://sodipodi.sourceforge.net/DTD/sodipodi-0.dtd"
   xmlns:inkscape="http://www.inkscape.org/namespaces/inkscape"
   version="1.0"
   width="96"
   height="32"
   viewBox="0 0 72.000005 24"
   preserveAspectRatio="xMidYMid meet"
   id="svg6"
   sodipodi:docname="logo-text-on-dark.svg"
   inkscape:version="1.0.2 (e86c870879, 2021-01-15, custom)"
   inkscape:export-filename="C:\Users\sid\Desktop\Projects\Oxvsys Company Projects\Images\logo-dark.png"
   inkscape:export-xdpi="97.540001"
   inkscape:export-ydpi="97.540001">
  <metadata
     id="metadata12">
    <rdf:RDF>
      <cc:Work
         rdf:about="">
        <dc:format>image/svg+xml</dc:format>
        <dc:type
           rdf:resource="http://purl.org/dc/dcmitype/StillImage" />
        <dc:title />
      </cc:Work>
    </rdf:RDF>
  </metadata>
  <defs
     id="defs10" />
  <sodipodi:namedview
     pagecolor="#ffffff"
     bordercolor="#666666"
     borderopacity="1"
     objecttolerance="10"
     gridtolerance="10"
     guidetolerance="10"
     inkscape:pageopacity="0"
     inkscape:pageshadow="2"
     inkscape:window-width="1920"
     inkscape:window-height="991"
     id="namedview8"
     showgrid="false"
     units="px"
     inkscape:zoom="3.9649682"
     inkscape:cx="44.207406"
     inkscape:cy="73.568105"
     inkscape:window-x="-9"
     inkscape:window-y="-9"
     inkscape:window-maximized="1"
     inkscape:current-layer="g857"
     inkscape:document-rotation="0">
    <inkscape:grid
       type="xygrid"
       id="grid837" />
  </sodipodi:namedview>
  <g
     id="g972">
    <g
       aria-label="OXVSYS"
       id="text841"
       style="font-style:normal;font-weight:normal;font-size:27.5509px;line-height:1.25;font-family:sans-serif;fill:#03254c;fill-opacity:1;stroke:none;stroke-width:0.688774" />
    <g
       id="g857"
       transform="translate(-1.2843392)">
      <g
         id="g889"
         transform="matrix(1.0885277,0,0,1.0885277,-2.0516499,2.5485821)"
         style="fill:#ffffff">
        <path
           d="m 19.626976,8.6228157 q 0,-1.838109 1.385243,-3.1500928 1.385241,-1.3119838 3.329907,-1.3119838 1.898048,0 3.26997,1.3253034 1.371922,1.3186432 1.371922,3.1367732 0,1.9246863 -1.358603,3.2566493 -1.351942,1.325304 -3.323248,1.325304 -1.944666,0 -3.309928,-1.338623 -1.365263,-1.338623 -1.365263,-3.2433303 z m 8.124976,0.053279 q 0,-1.4052211 -1.012292,-2.3642347 -1.012292,-0.9656731 -2.490771,-0.9656731 -1.405222,0 -2.410853,0.9789927 -0.998973,0.9789932 -0.998973,2.3509151 0,1.3919003 1.025612,2.3575743 1.032271,0.959013 2.52407,0.959013 1.371922,0 2.364234,-0.978993 0.998973,-0.985652 0.998973,-2.3375943 z"
           style="font-style:normal;font-variant:normal;font-weight:normal;font-stretch:normal;font-size:27.5509px;line-height:1.25;font-family:'Tw Cen MT';-inkscape-font-specification:'Tw Cen MT';fill:#ffffff;fill-opacity:1;stroke:none;stroke-width:0.340983"
           id="path902" />
        <path
           d="m 29.896413,4.4337915 h 1.278684 l 1.898048,3.0968141 1.871408,-3.0968141 h 1.292004 l -2.52407,4.149065 2.597328,4.3355405 H 35.024471 L 33.073145,9.6617471 31.095179,12.918397 h -1.292004 l 2.617308,-4.3355405 z"
           style="font-style:normal;font-variant:normal;font-weight:normal;font-stretch:normal;font-size:27.5509px;line-height:1.25;font-family:'Tw Cen MT';-inkscape-font-specification:'Tw Cen MT';fill:#ffffff;fill-opacity:1;stroke:none;stroke-width:0.340983"
           id="path904" />
        <path
           d="M 37.042394,4.4471111 H 38.2678 l 2.657266,6.0004939 2.677244,-6.0004939 h 1.23873 l -3.929293,8.7576579 z"
           style="font-style:normal;font-variant:normal;font-weight:normal;font-stretch:normal;font-size:27.5509px;line-height:1.25;font-family:'Tw Cen MT';-inkscape-font-specification:'Tw Cen MT';fill:#ffffff;fill-opacity:1;stroke:none;stroke-width:0.340983"
           id="path906" />
        <path
           d="M 51.167865,5.3728256 50.228829,6.1253845 Q 49.855882,5.7391153 49.54953,5.5526407 49.249836,5.3595061 48.677093,5.3595061 q -0.626021,0 -1.018953,0.2863719 -0.38627,0.2797124 -0.38627,0.7259198 0,0.3862693 0.339655,0.6859612 0.339649,0.293032 1.158808,0.6460022 0.819153,0.3463101 1.272022,0.6526616 0.459528,0.299692 0.752558,0.6659817 0.293035,0.3662897 0.432889,0.7725385 0.146518,0.406249 0.146518,0.859116 0,1.058911 -0.772539,1.80481 -0.76588,0.7459 -1.858087,0.7459 -1.065574,0 -1.884732,-0.579404 -0.812495,-0.586064 -1.252042,-1.751532 l 1.158808,-0.326331 q 0.632679,1.431861 1.938004,1.431861 0.632685,0 1.052252,-0.37961 0.419567,-0.379609 0.419567,-0.959013 0,-0.346311 -0.219771,-0.692621 Q 49.736003,9.5951488 49.409671,9.3687151 49.083343,9.1422814 48.364083,8.8559089 47.651481,8.5628775 47.265212,8.3231237 46.885601,8.0767109 46.605888,7.7437198 46.32618,7.4040692 46.19298,7.0710786 46.066443,6.738088 46.066443,6.3584783 q 0,-0.9123945 0.732582,-1.5517371 0.732578,-0.6460021 1.778171,-0.6460021 0.692621,0 1.405223,0.299692 0.712596,0.2996915 1.185446,0.9123945 z"
           style="font-style:normal;font-variant:normal;font-weight:normal;font-stretch:normal;font-size:27.5509px;line-height:1.25;font-family:'Tw Cen MT';-inkscape-font-specification:'Tw Cen MT';fill:#ffffff;fill-opacity:1;stroke:none;stroke-width:0.340983"
           id="path908" />
        <path
           d="m 52.300029,4.4337915 h 1.285345 l 2.084522,3.4098256 2.057883,-3.4098256 h 1.285345 l -2.783802,4.595273 V 12.918397 H 55.070514 V 9.042384 Z"
           style="font-style:normal;font-variant:normal;font-weight:normal;font-stretch:normal;font-size:27.5509px;line-height:1.25;font-family:'Tw Cen MT';-inkscape-font-specification:'Tw Cen MT';fill:#ffffff;fill-opacity:1;stroke:none;stroke-width:0.340983"
           id="path910" />
        <path
           d="M 65.379906,5.3728256 64.440874,6.1253845 Q 64.067922,5.7391153 63.761575,5.5526407 63.461882,5.3595061 62.889139,5.3595061 q -0.626026,0 -1.018954,0.2863719 -0.386269,0.2797124 -0.386269,0.7259198 0,0.3862693 0.339649,0.6859612 0.33965,0.293032 1.158808,0.6460022 0.819158,0.3463101 1.272028,0.6526616 0.459528,0.299692 0.752558,0.6659817 0.29303,0.3662897 0.432889,0.7725385 0.146512,0.406249 0.146512,0.859116 0,1.058911 -0.772538,1.80481 -0.765875,0.7459 -1.858088,0.7459 -1.065568,0 -1.884727,-0.579404 -0.812499,-0.586064 -1.252047,-1.751532 l 1.158808,-0.326331 q 0.632685,1.431861 1.93801,1.431861 0.632679,0 1.052251,-0.37961 0.419567,-0.379609 0.419567,-0.959013 0,-0.346311 -0.219776,-0.692621 Q 63.948049,9.5951488 63.621716,9.3687151 63.295384,9.1422814 62.576123,8.8559089 61.863526,8.5628775 61.477257,8.3231237 61.097646,8.0767109 60.817934,7.7437198 60.538221,7.4040692 60.405025,7.0710786 60.278488,6.738088 60.278488,6.3584783 q 0,-0.9123945 0.732583,-1.5517371 0.732577,-0.6460021 1.77817,-0.6460021 0.692621,0 1.405218,0.299692 0.712602,0.2996915 1.185447,0.9123945 z"
           style="font-style:normal;font-variant:normal;font-weight:normal;font-stretch:normal;font-size:27.5509px;line-height:1.25;font-family:'Tw Cen MT';-inkscape-font-specification:'Tw Cen MT';fill:#ffffff;fill-opacity:1;stroke:none;stroke-width:0.340983"
           id="path912" />
      </g>
      <path
         style="color:#000000;font-style:normal;font-variant:normal;font-weight:normal;font-stretch:normal;font-size:medium;line-height:normal;font-family:sans-serif;font-variant-ligatures:normal;font-variant-position:normal;font-variant-caps:normal;font-variant-numeric:normal;font-variant-alternates:normal;font-variant-east-asian:normal;font-feature-settings:normal;font-variation-settings:normal;text-indent:0;text-align:start;text-decoration:none;text-decoration-line:none;text-decoration-style:solid;text-decoration-color:#000000;letter-spacing:normal;word-spacing:normal;text-transform:none;writing-mode:lr-tb;direction:ltr;text-orientation:mixed;dominant-baseline:auto;baseline-shift:baseline;text-anchor:start;white-space:normal;shape-padding:0;shape-margin:0;inline-size:0;clip-rule:nonzero;display:inline;overflow:visible;visibility:visible;isolation:auto;mix-blend-mode:normal;color-interpolation:sRGB;color-interpolation-filters:linearRGB;solid-color:#000000;solid-opacity:1;vector-effect:none;fill:#f2f2f2;fill-opacity:1;fill-rule:nonzero;stroke:none;stroke-width:0.00597337;stroke-linecap:butt;stroke-linejoin:miter;stroke-miterlimit:4;stroke-dasharray:none;stroke-dashoffset:0;stroke-opacity:1;color-rendering:auto;image-rendering:auto;shape-rendering:auto;text-rendering:auto;enable-background:accumulate;stop-color:#000000"
         d="M 6.76424,5.106319 C 6.68659,5.2675981 6.316241,6.0321825 5.945894,6.7907956 5.575548,7.55538 5.258961,8.2303708 5.235068,8.2960759 c -0.02987,0.095574 0.02389,0.1314098 0.310613,0.2329596 0.191147,0.065705 0.73472,0.2568536 1.212586,0.4300795 0.477866,0.1672544 1.242453,0.4360503 1.702399,0.5973289 1.3559462,0.4659251 5.507409,1.9950941 5.561169,2.0428811 0.02986,0.02986 -0.316586,0.878081 -0.388266,0.955733 -0.0239,0.02986 -0.149333,0.0059 -0.274773,-0.04179 C 13.227383,12.465478 12.32541,12.142925 11.357731,11.790497 10.390051,11.44404 8.860879,10.894498 7.958907,10.565964 7.056933,10.23743 6.298321,9.9805757 6.274427,9.9865521 c -0.02986,0.011931 0.2688,0.5794119 0.657067,1.2723159 0.585386,1.045336 0.740693,1.27232 0.907946,1.361918 0.113493,0.05376 0.866132,0.346457 1.684479,0.645122 1.272318,0.471895 1.475412,0.561493 1.475412,0.669014 0,0.19712 -0.19712,0.758614 -0.262826,0.758614 -0.03584,0 -0.561493,-0.173231 -1.1648,-0.388268 -0.603306,-0.215037 -1.111039,-0.376321 -1.128959,-0.364375 -0.01195,0.01793 0.14336,0.334506 0.346453,0.704856 0.209067,0.370345 0.513706,0.931839 0.686933,1.242451 0.173227,0.310611 0.3763202,0.686932 0.4599462,0.836265 0.08363,0.149337 0.4121598,0.752642 0.7347198,1.344 0.32256,0.591359 0.603306,1.099094 0.627199,1.122983 0.0239,0.02391 0.30464,-0.442026 0.6272,-1.045331 0.322559,-0.603305 0.686932,-1.266344 0.806399,-1.481382 0.12544,-0.215041 0.59136,-1.069229 1.045333,-1.905494 0.453972,-0.836265 0.961705,-1.750187 1.128958,-2.030934 0.615254,-1.015467 1.00352,-1.750181 0.955733,-1.797969 -0.02986,-0.02986 -0.400213,-0.161283 -0.824319,-0.292693 -0.424107,-0.131415 -0.782506,-0.250882 -0.794453,-0.268801 -0.04181,-0.03584 0.09557,-0.137386 0.639146,-0.4599438 1.529173,-0.9079503 2.449065,-1.5172265 2.449065,-1.612801 0,-0.059734 -0.101547,-0.3285341 -0.23296,-0.6033098 C 16.97266,7.4180182 16.6501,6.7370615 16.393247,6.1815384 16.13042,5.6200446 15.891487,5.1003668 15.867594,5.0227105 15.783964,4.759886 15.73618,5.0107775 15.694367,5.8828738 c -0.0239,0.4599435 -0.05973,0.8900235 -0.07168,0.9557331 -0.03584,0.1493318 -0.04181,0.1493318 -2.449064,0.8900277 L 11.315917,8.3020721 10.336291,8.0034068 C 9.7986922,7.8361504 9.153572,7.6390305 8.908666,7.5554033 8.663759,7.4777519 8.14408,7.3164723 7.755813,7.1970048 7.176401,7.0178026 7.05096,6.9580738 7.027067,6.8505531 7.015117,6.7788721 6.979277,6.2890591 6.955387,5.7634054 L 6.901627,4.8076728 Z"
         id="path2-6" />
    </g>
  </g>
</svg>
