<?xml version="1.0" encoding="UTF-8" standalone="no"?>
<svg
   xmlns:dc="http://purl.org/dc/elements/1.1/"
   xmlns:cc="http://creativecommons.org/ns#"
   xmlns:rdf="http://www.w3.org/1999/02/22-rdf-syntax-ns#"
   xmlns:svg="http://www.w3.org/2000/svg"
   xmlns="http://www.w3.org/2000/svg"
   xmlns:sodipodi="http://sodipodi.sourceforge.net/DTD/sodipodi-0.dtd"
   xmlns:inkscape="http://www.inkscape.org/namespaces/inkscape"
   version="1.0"
   width="32"
   height="32"
   viewBox="0 0 24.000002 24"
   preserveAspectRatio="xMidYMid meet"
   id="svg6"
   sodipodi:docname="square-dark.svg"
   inkscape:version="1.0.2 (e86c870879, 2021-01-15, custom)"
   inkscape:export-filename="C:\Users\sid\Desktop\Projects\Oxvsys Company Projects\Images\logo-dark.png"
   inkscape:export-xdpi="97.540001"
   inkscape:export-ydpi="97.540001">
  <metadata
     id="metadata12">
    <rdf:RDF>
      <cc:Work
         rdf:about="">
        <dc:format>image/svg+xml</dc:format>
        <dc:type
           rdf:resource="http://purl.org/dc/dcmitype/StillImage" />
        <dc:title></dc:title>
      </cc:Work>
    </rdf:RDF>
  </metadata>
  <defs
     id="defs10" />
  <sodipodi:namedview
     pagecolor="#ffffff"
     bordercolor="#666666"
     borderopacity="1"
     objecttolerance="10"
     gridtolerance="10"
     guidetolerance="10"
     inkscape:pageopacity="0"
     inkscape:pageshadow="2"
     inkscape:window-width="1920"
     inkscape:window-height="991"
     id="namedview8"
     showgrid="false"
     units="px"
     inkscape:zoom="15.859873"
     inkscape:cx="15.777462"
     inkscape:cy="17.473042"
     inkscape:window-x="-9"
     inkscape:window-y="-9"
     inkscape:window-maximized="1"
     inkscape:current-layer="g972"
     inkscape:document-rotation="0"
     width="300px">
    <inkscape:grid
       type="xygrid"
       id="grid837" />
  </sodipodi:namedview>
  <g
     id="g972">
    <g
       aria-label="OXVSYS"
       id="text841"
       style="font-style:normal;font-weight:normal;font-size:27.5509px;line-height:1.25;font-family:sans-serif;fill:#03254c;fill-opacity:1;stroke:none;stroke-width:0.688774" />
    <path
       style="color:#000000;font-style:normal;font-variant:normal;font-weight:normal;font-stretch:normal;font-size:medium;line-height:normal;font-family:sans-serif;font-variant-ligatures:normal;font-variant-position:normal;font-variant-caps:normal;font-variant-numeric:normal;font-variant-alternates:normal;font-variant-east-asian:normal;font-feature-settings:normal;font-variation-settings:normal;text-indent:0;text-align:start;text-decoration:none;text-decoration-line:none;text-decoration-style:solid;text-decoration-color:#000000;letter-spacing:normal;word-spacing:normal;text-transform:none;writing-mode:lr-tb;direction:ltr;text-orientation:mixed;dominant-baseline:auto;baseline-shift:baseline;text-anchor:start;white-space:normal;shape-padding:0;shape-margin:0;inline-size:0;clip-rule:nonzero;display:inline;overflow:visible;visibility:visible;opacity:1;isolation:auto;mix-blend-mode:normal;color-interpolation:sRGB;color-interpolation-filters:linearRGB;solid-color:#000000;solid-opacity:1;vector-effect:none;fill:#03254c;fill-opacity:1;fill-rule:nonzero;stroke:none;stroke-width:0.00916806;stroke-linecap:butt;stroke-linejoin:miter;stroke-miterlimit:4;stroke-dasharray:none;stroke-dashoffset:0;stroke-opacity:1;color-rendering:auto;image-rendering:auto;shape-rendering:auto;text-rendering:auto;enable-background:accumulate;stop-color:#000000;stop-opacity:1"
       d="M 5.0700175,1.4194217 C 4.950828,1.6669563 4.3824183,2.8404576 3.8140004,4.0047939 3.2455858,5.178296 2.7596814,6.2142861 2.7230102,6.3151318 c -0.045847,0.1466846 0.036671,0.2016913 0.4767351,0.3575521 0.2933759,0.1008374 1.1276646,0.3942248 1.8611044,0.6600957 0.7334397,0.2567048 1.9069434,0.6692586 2.6128797,0.9167941 2.0811347,0.7151108 8.4528926,3.0621133 8.5354056,3.1354593 0.04583,0.04583 -0.485904,1.347698 -0.595919,1.466879 -0.03667,0.04582 -0.229201,0.0091 -0.421727,-0.06414 -0.201696,-0.07334 -1.586063,-0.568415 -3.071281,-1.109327 C 10.634995,11.146701 8.2879863,10.303251 6.9036185,9.7990097 5.5192492,9.2947697 4.3549133,8.9005447 4.3182421,8.9097159 c -0.045831,0.018318 0.4125589,0.8892938 1.0084802,1.9527791 0.8984633,1.604405 1.1368324,1.952786 1.3935354,2.090303 0.174193,0.08252 1.3293594,0.531749 2.5853764,0.990145 1.9527809,0.724278 2.2644959,0.861796 2.2644959,1.026819 0,0.302546 -0.302545,1.164338 -0.403393,1.164338 -0.05501,0 -0.861792,-0.265879 -1.7877605,-0.595919 -0.9259667,-0.330047 -1.7052471,-0.57759 -1.7327504,-0.559254 -0.018335,0.02751 0.2200319,0.513406 0.5317434,1.081829 0.3208809,0.568414 0.7884481,1.430208 1.054319,1.90694 0.2658742,0.476733 0.577584,1.054319 0.7059363,1.283519 0.1283492,0.229204 0.6325912,1.155171 1.1276652,2.062801 0.495071,0.907629 0.925965,1.686916 0.962638,1.723581 0.03667,0.0367 0.467568,-0.678434 0.962639,-1.604399 0.495072,-0.925965 1.054321,-1.943614 1.23768,-2.273657 0.192528,-0.330053 0.907632,-1.641078 1.604401,-2.924595 0.696767,-1.283519 1.476047,-2.686225 1.732751,-3.117123 0.944307,-1.558561 1.540224,-2.686217 1.466881,-2.759564 -0.04584,-0.04582 -0.614256,-0.247541 -1.265184,-0.4492325 -0.650927,-0.201698 -1.201008,-0.3850588 -1.219344,-0.4125605 -0.06418,-0.055006 0.146685,-0.2108609 0.980977,-0.7059315 2.347005,-1.3935423 3.758877,-2.3286734 3.758877,-2.475363 0,-0.091678 -0.155861,-0.5042417 -0.357553,-0.9259732 C 20.738127,4.9674733 20.243055,3.9223253 19.84883,3.0696964 19.44544,2.2079029 19.07872,1.41029 19.042049,1.2911011 18.9137,0.88771237 18.840352,1.272787 18.776177,2.6112992 c -0.03667,0.7059317 -0.09168,1.3660274 -0.110014,1.4668801 -0.05501,0.2291985 -0.06416,0.2291985 -3.758877,1.3660339 L 12.056039,6.324336 10.552485,5.8659382 C 9.7273607,5.6092285 8.7372179,5.3066848 8.3613286,5.1783308 7.9854426,5.0591495 7.187825,4.8116145 6.5919054,4.6282532 5.7026099,4.3532099 5.5100814,4.2615364 5.4734102,4.0965109 5.4550696,3.9864938 5.4000646,3.2347174 5.3633934,2.4279323 L 5.280875,0.9610527 Z"
       id="path2-6" />
  </g>
</svg>
